<svg width="300" height="233" viewBox="0 0 300 233" fill="none" xmlns="http://www.w3.org/2000/svg">
<path d="M254.129 19.8471C234.709 10.7612 213.945 4.15791 192.236 0.397949C189.57 5.21808 186.455 11.7013 184.308 16.8586C161.231 13.3882 138.367 13.3882 115.714 16.8586C113.567 11.7013 110.382 5.21808 107.692 0.397949C85.9601 4.15791 65.1719 10.7854 45.7524 19.8952C6.58303 79.0853 -4.03514 136.805 1.27396 193.705C27.2531 213.106 52.4301 224.891 77.1822 232.603C83.2936 224.192 88.7442 215.251 93.4397 205.828C84.4969 202.43 75.9316 198.236 67.8384 193.368C69.9855 191.778 72.0857 190.114 74.1148 188.403C123.477 211.492 177.111 211.492 225.884 188.403C227.937 190.114 230.037 191.778 232.161 193.368C224.043 198.26 215.455 202.454 206.512 205.852C211.207 215.251 216.635 224.216 222.769 232.627C247.545 224.915 272.746 213.13 298.725 193.705C304.954 127.743 288.083 70.5537 254.129 19.8471ZM100.165 158.712C85.3465 158.712 73.1944 144.879 73.1944 128.033C73.1944 111.187 85.087 97.3291 100.165 97.3291C115.243 97.3291 127.394 111.162 127.135 128.033C127.158 144.879 115.243 158.712 100.165 158.712ZM199.834 158.712C185.016 158.712 172.864 144.879 172.864 128.033C172.864 111.187 184.756 97.3291 199.834 97.3291C214.912 97.3291 227.064 111.162 226.805 128.033C226.805 144.879 214.912 158.712 199.834 158.712Z" fill="white"/>
</svg>
